<svg width="19" height="19" viewBox="0 0 19 19" fill="none" xmlns="http://www.w3.org/2000/svg">
<g clip-path="url(#clip0)">
<path d="M16.0197 3.61482C14.8204 3.07396 13.5349 2.6742 12.1906 2.44688C12.1786 2.44458 12.1662 2.44606 12.1551 2.45112C12.144 2.45618 12.1348 2.46456 12.1286 2.4751C11.964 2.76434 11.7806 3.14138 11.6521 3.43924C10.2263 3.22622 8.77681 3.22622 7.35105 3.43924C7.20787 3.10913 7.0464 2.78725 6.86741 2.4751C6.86134 2.46443 6.85217 2.45586 6.8411 2.45053C6.83004 2.44521 6.81761 2.44339 6.80549 2.44531C5.46196 2.67263 4.17644 3.0724 2.97636 3.61404C2.96603 3.61837 2.95728 3.62576 2.95128 3.6352C0.511921 7.22134 -0.156707 10.7189 0.171728 14.1726C0.172642 14.181 0.175268 14.1892 0.179445 14.1966C0.183623 14.204 0.189265 14.2105 0.196028 14.2157C1.61981 15.2523 3.20786 16.0419 4.89367 16.5516C4.90542 16.5552 4.91799 16.5552 4.92973 16.5515C4.94148 16.5479 4.95186 16.5408 4.95951 16.5312C5.32165 16.0452 5.6446 15.5318 5.92052 14.9925C5.93698 14.9611 5.9213 14.9235 5.88838 14.9109C5.38201 14.7203 4.89138 14.4901 4.421 14.2227C4.41255 14.2179 4.40543 14.2111 4.40027 14.2028C4.39512 14.1945 4.3921 14.1851 4.39148 14.1754C4.39086 14.1657 4.39265 14.156 4.39671 14.1471C4.40077 14.1383 4.40696 14.1306 4.41473 14.1247C4.5135 14.0518 4.61226 13.9758 4.70633 13.8998C4.71479 13.8929 4.72499 13.8886 4.73579 13.8872C4.74658 13.8858 4.75755 13.8875 4.76747 13.8919C7.84566 15.2747 11.1794 15.2747 14.2215 13.8919C14.2315 13.8872 14.2426 13.8853 14.2535 13.8866C14.2645 13.8878 14.2748 13.8921 14.2835 13.899C14.3775 13.9758 14.4755 14.0518 14.5751 14.1247C14.5829 14.1305 14.5892 14.1381 14.5934 14.1468C14.5976 14.1556 14.5995 14.1653 14.599 14.175C14.5986 14.1847 14.5957 14.1941 14.5907 14.2025C14.5857 14.2108 14.5787 14.2178 14.5703 14.2227C14.1016 14.4924 13.614 14.7205 13.1022 14.9102C13.0943 14.913 13.0872 14.9175 13.0812 14.9234C13.0752 14.9292 13.0705 14.9363 13.0675 14.944C13.0644 14.9518 13.0631 14.9602 13.0635 14.9685C13.064 14.9769 13.0662 14.985 13.0701 14.9925C13.3522 15.531 13.6752 16.0436 14.0303 16.5304C14.0377 16.5404 14.0479 16.5478 14.0597 16.5518C14.0715 16.5557 14.0842 16.5559 14.0961 16.5523C15.7848 16.0441 17.3755 15.2541 18.8008 14.2157C18.8078 14.2108 18.8136 14.2045 18.8179 14.1972C18.8223 14.1899 18.825 14.1818 18.8259 14.1733C19.2178 10.1804 18.169 6.71105 16.044 3.63677C16.0388 3.62678 16.0302 3.61899 16.0197 3.61482ZM6.38064 12.0695C5.45412 12.0695 4.68986 11.2315 4.68986 10.2039C4.68986 9.17549 5.43923 8.33833 6.38064 8.33833C7.3291 8.33833 8.0863 9.18254 8.07141 10.2039C8.07141 11.2323 7.32205 12.0695 6.38064 12.0695ZM12.6319 12.0695C11.7046 12.0695 10.9411 11.2315 10.9411 10.2039C10.9411 9.17549 11.6897 8.33833 12.6319 8.33833C13.5803 8.33833 14.3375 9.18254 14.3226 10.2039C14.3226 11.2323 13.5811 12.0695 12.6319 12.0695Z" fill="white"/>
</g>
<defs>
<clipPath id="clip0">
<rect width="18.8125" height="18.8125" fill="white" transform="translate(0.09375 0.09375)"/>
</clipPath>
</defs>
</svg>
