<svg width="19" height="19" viewBox="0 0 19 19" fill="none" xmlns="http://www.w3.org/2000/svg">
<g clip-path="url(#clip0)">
<path fill-rule="evenodd" clip-rule="evenodd" d="M18.4751 4.75611C18.6053 4.32813 18.4751 4.01302 17.852 4.01302H15.7943C15.2707 4.01302 15.0293 4.28502 14.8984 4.58523C14.8984 4.58523 13.852 7.09043 12.3697 8.71771C11.89 9.18959 11.6721 9.33931 11.4103 9.33931C11.2793 9.33931 11.0826 9.18959 11.0826 8.76083V4.75611C11.0826 4.2419 10.9384 4.01302 10.5026 4.01302H7.2668C6.93993 4.01302 6.74319 4.25131 6.74319 4.47785C6.74319 4.96462 7.48471 5.07749 7.56074 6.44767V9.42475C7.56074 10.0777 7.44081 10.1961 7.17901 10.1961C6.48138 10.1961 4.78433 7.67911 3.77708 4.79923C3.5819 4.23877 3.38437 4.01302 2.8584 4.01302H0.799219C0.211328 4.01302 0.09375 4.28502 0.09375 4.58523C0.09375 5.11982 0.79138 7.77552 3.34283 11.288C5.04379 13.6866 7.43846 14.987 9.61993 14.987C10.9282 14.987 11.0897 14.6985 11.0897 14.2008V12.3877C11.0897 11.81 11.2135 11.6948 11.6282 11.6948C11.9339 11.6948 12.4567 11.8453 13.6779 13.0015C15.0732 14.3724 15.3029 14.987 16.0883 14.987H18.1459C18.7338 14.987 19.0285 14.6985 18.8592 14.1279C18.6727 13.5604 18.0064 12.7365 17.123 11.7591C16.6433 11.2025 15.9237 10.6029 15.705 10.3027C15.4001 9.91779 15.4871 9.74613 15.705 9.40359C15.705 9.40359 18.2133 5.93425 18.4743 4.75611H18.4751Z" fill="white"/>
</g>
<defs>
<clipPath id="clip0">
<rect width="18.8125" height="18.8125" fill="white" transform="translate(0.09375 0.09375)"/>
</clipPath>
</defs>
</svg>
