<svg width="35" height="24" viewBox="0 0 35 24" fill="none" xmlns="http://www.w3.org/2000/svg">
<path d="M28.3179 9.91097C27.8722 7.10325 26.6738 4.7019 24.824 2.92509C22.8568 1.03741 20.2298 -0.0117497 17.5 9.9282e-05C15.0732 9.9282e-05 12.8352 0.797142 11.0277 2.30464C9.64648 3.46658 8.58297 4.9587 7.93652 6.64166C5.86797 6.96962 4.00928 7.81302 2.64688 9.05324C0.915332 10.6282 0 12.7787 0 15.2728C0 17.7273 0.983008 19.9691 2.76787 21.5857C4.48711 23.143 6.80586 24 9.29688 24H27.0703C29.2831 24 31.1876 23.4157 32.5794 22.3111C34.1633 21.0532 35 19.1857 35 16.9091C35 12.6921 31.6887 10.4087 28.3179 9.91097ZM14.3295 19.1155L9.59766 13.886L11.2219 12.4241L14.2721 15.7964L21.538 7.19189L23.2107 8.59711L14.3295 19.1155Z" fill="white"/>
</svg>
