<svg width="28" height="28" viewBox="0 0 28 28" fill="none" xmlns="http://www.w3.org/2000/svg">
<path d="M14 0C6.28048 0 0 6.28048 0 14C0 21.7195 6.28048 28 14 28C21.7195 28 28 21.7195 28 14C28 6.28048 21.7195 0 14 0ZM21.2861 9.30798L12.2399 20.0772C12.1407 20.1954 12.0172 20.2909 11.8778 20.3572C11.7385 20.4235 11.5865 20.4591 11.4322 20.4615H11.414C11.2631 20.4615 11.1138 20.4297 10.976 20.3682C10.8381 20.3068 10.7147 20.217 10.6138 20.1048L6.73683 15.7971C6.63837 15.6927 6.56178 15.5696 6.51155 15.4352C6.46133 15.3007 6.43849 15.1576 6.44438 15.0142C6.45027 14.8708 6.48476 14.73 6.54583 14.6001C6.6069 14.4702 6.69332 14.3538 6.80001 14.2578C6.9067 14.1618 7.0315 14.0881 7.16708 14.041C7.30267 13.9939 7.44629 13.9744 7.58953 13.9836C7.73276 13.9929 7.8727 14.0306 8.00113 14.0947C8.12957 14.1587 8.2439 14.2478 8.3374 14.3567L11.3858 17.7437L19.637 7.92279C19.8221 7.7088 20.084 7.57625 20.366 7.55377C20.648 7.5313 20.9276 7.62071 21.1442 7.80269C21.3608 7.98466 21.4972 8.24458 21.5237 8.52626C21.5503 8.80793 21.4649 9.08874 21.2861 9.30798V9.30798Z" fill="#FFFEFE"/>
</svg>
