<svg width="592" height="494" viewBox="0 0 592 494" fill="none" xmlns="http://www.w3.org/2000/svg">
<path d="M282 433C319.822 433 351.184 410.383 371.987 379.709C392.883 348.898 405 307.737 405 263.5C405 219.263 392.883 178.102 371.987 147.291C351.184 116.617 319.822 94 282 94C244.178 94 212.816 116.617 192.013 147.291C171.117 178.102 159 219.263 159 263.5C159 307.737 171.117 348.898 192.013 379.709C212.816 410.383 244.178 433 282 433Z" stroke="#D04F51" stroke-width="50"/>
<path d="M358.045 439.862C399.707 447.234 439.039 428.672 468.585 398.46C498.236 368.141 520.196 324.304 529.027 274.393C537.859 224.481 532.274 175.771 514.827 137.118C497.441 98.6024 466.867 67.6712 425.205 60.2997C383.543 52.9281 344.212 71.4901 314.666 101.702C285.015 132.021 263.055 175.857 254.223 225.769C245.392 275.681 250.977 324.391 268.424 363.044C285.809 401.56 316.384 432.491 358.045 439.862Z" stroke="#B05253" stroke-width="50"/>
<path d="M223.439 430.408C265.285 424.169 296.687 394.078 315.111 356.048C333.6 317.883 340.504 269.342 333.029 219.209C325.555 169.076 304.791 124.66 275.974 93.5481C247.258 62.5462 208.444 42.9244 166.598 49.1634C124.751 55.4025 93.3494 85.4931 74.9257 123.523C56.4368 161.688 49.533 210.23 57.0075 260.362C64.4821 310.495 85.2453 354.911 114.063 386.023C142.779 417.025 181.593 436.647 223.439 430.408Z" stroke="#FD686A" stroke-width="50"/>
</svg>
